<svg xmlns="http://www.w3.org/2000/svg" viewBox="0 0 64 64">
  <defs>
    <linearGradient id="grad" x1="0%" y1="0%" x2="100%" y2="100%">
      <stop offset="0%" style="stop-color:#667eea"/>
      <stop offset="50%" style="stop-color:#764ba2"/>
      <stop offset="100%" style="stop-color:#f093fb"/>
    </linearGradient>
  </defs>
  <!-- Background rounded square -->
  <rect x="4" y="4" width="56" height="56" rx="12" ry="12" fill="url(#grad)"/>
  <!-- Document icon -->
  <path d="M20 14h16l10 10v26a2 2 0 0 1-2 2H20a2 2 0 0 1-2-2V16a2 2 0 0 1 2-2z" fill="white" opacity="0.9"/>
  <path d="M36 14v10h10" fill="none" stroke="white" stroke-width="2" opacity="0.7"/>
  <!-- AI sparkle/star -->
  <g fill="white">
    <circle cx="28" cy="32" r="2"/>
    <path d="M28 24v16M20 32h16" stroke="white" stroke-width="2.5" stroke-linecap="round"/>
    <circle cx="21" cy="25" r="1.5"/>
    <circle cx="35" cy="25" r="1.5"/>
    <circle cx="21" cy="39" r="1.5"/>
    <circle cx="35" cy="39" r="1.5"/>
  </g>
  <!-- Small sparkles -->
  <circle cx="48" cy="12" r="2" fill="white" opacity="0.8"/>
  <circle cx="52" cy="18" r="1.5" fill="white" opacity="0.6"/>
  <circle cx="12" cy="52" r="1.5" fill="white" opacity="0.6"/>
</svg>
